HIERARCHY
ROOT Hips
{
 OFFSET 0.000000 0.000000 0.000000
 CHANNELS 6 Xposition Yposition Zposition Yrotation Xrotation Zrotation
 JOINT Chest
 {
  OFFSET 0.000000 10.383400 0.001500
  CHANNELS 3 Yrotation Xrotation Zrotation
  JOINT Chest2
  {
   OFFSET 0.000000 10.418200 -0.003100
   CHANNELS 3 Yrotation Xrotation Zrotation
   JOINT Chest3
   {
    OFFSET 0.000000 10.375100 0.000000
    CHANNELS 3 Yrotation Xrotation Zrotation
    JOINT Chest4
    {
     OFFSET 0.000000 10.364600 0.000000
     CHANNELS 3 Yrotation Xrotation Zrotation
     JOINT Neck
     {
      OFFSET 0.000000 15.642200 0.000000
      CHANNELS 3 Yrotation Xrotation Zrotation
      JOINT Head
      {
       OFFSET 0.000000 9.697300 -0.006500
       CHANNELS 3 Yrotation Xrotation Zrotation
       End Site
       {
        OFFSET 0.000000 18.492200 -0.003400
       }
      }
     }
     JOINT RightCollar
     {
      OFFSET -3.166800 10.349300 0.000000
      CHANNELS 3 Yrotation Xrotation Zrotation
      JOINT RightShoulder
      {
       OFFSET -14.729700 0.000000 0.000000
       CHANNELS 3 Yrotation Xrotation Zrotation
       JOINT RightElbow
       {
        OFFSET 0.000000 -32.224300 0.000000
        CHANNELS 3 Yrotation Xrotation Zrotation
        JOINT RightWrist
        {
         OFFSET 0.000000 -26.084100 0.000000
         CHANNELS 3 Yrotation Xrotation Zrotation
         End Site
         {
          OFFSET 0.000000 -19.319400 0.000000
         }
        }
       }
      }
     }
     JOINT LeftCollar
     {
      OFFSET 3.166800 10.349300 0.000000
      CHANNELS 3 Yrotation Xrotation Zrotation
      JOINT LeftShoulder
      {
       OFFSET 14.729700 0.000000 0.000000
       CHANNELS 3 Yrotation Xrotation Zrotation
       JOINT LeftElbow
       {
        OFFSET 0.000000 -32.224300 0.000000
        CHANNELS 3 Yrotation Xrotation Zrotation
        JOINT LeftWrist
        {
         OFFSET 0.000000 -26.084100 0.000000
         CHANNELS 3 Yrotation Xrotation Zrotation
         End Site
         {
          OFFSET 0.000000 -19.319400 0.000000
         }
        }
       }
      }
     }
    }
   }
  }
 }
 JOINT RightHip
 {
  OFFSET -8.428900 -0.007500 -0.000800
  CHANNELS 3 Yrotation Xrotation Zrotation
  JOINT RightKnee
  {
   OFFSET 0.000000 -43.834600 0.000700
   CHANNELS 3 Yrotation Xrotation Zrotation
   JOINT RightAnkle
   {
    OFFSET 0.000000 -42.757000 0.001200
    CHANNELS 3 Yrotation Xrotation Zrotation
    JOINT RightToe
    {
     OFFSET 0.000000 -6.946900 15.649300
     CHANNELS 3 Yrotation Xrotation Zrotation
     End Site
     {
      OFFSET 0.000000 -1.580800 6.825800
     }
    }
   }
  }
 }
 JOINT LeftHip
 {
  OFFSET 8.428900 -0.007500 -0.000800
  CHANNELS 3 Yrotation Xrotation Zrotation
  JOINT LeftKnee
  {
   OFFSET 0.000000 -43.834600 0.000700
   CHANNELS 3 Yrotation Xrotation Zrotation
   JOINT LeftAnkle
   {
    OFFSET 0.000000 -42.757000 0.001200
    CHANNELS 3 Yrotation Xrotation Zrotation
    JOINT LeftToe
    {
     OFFSET 0.000000 -6.946900 15.649300
     CHANNELS 3 Yrotation Xrotation Zrotation
     End Site
     {
      OFFSET 0.000000 -1.580800 6.825800
     }
    }
   }
  }
 }
}
MOTION
Frames: 12
Frame Time: 0.008333
-3.380738 126.269772 0.461172 174.028052 -17.398189 -3.234017 -1.564408 16.078461 1.417080 -0.212707 1.563783 0.150722 -0.243551 2.678629 0.268141 -1.489194 14.209936 1.256724 3.377777 14.170725 0.994137 3.324802 -10.811096 0.276498 5.858068 -1.681233 -1.056288 8.475951 -12.144496 -10.535199 -135.459809 -62.446498 164.089917 -3.669081 -15.110531 -30.201818 -7.440283 0.819409 -1.250056 3.863545 -21.405049 5.974374 70.073084 -37.230105 -121.593784 4.517069 3.777353 -4.421497 7.939972 -54.424662 5.751274 -29.030743 78.916242 -26.008515 -6.531626 -19.669320 5.498192 0.006442 -0.002540 0.002860 1.850771 -54.079748 -2.843268 103.719386 80.354764 108.759755 8.347837 -11.421345 -7.128897 0.001259 0.005965 0.000559
-3.382772 126.269337 0.468932 174.031553 -17.423079 -3.238160 -1.607262 16.073752 1.402044 -0.206046 1.588660 0.145495 -0.261289 2.661760 0.273423 -1.504276 14.266663 1.239117 3.362620 14.328722 0.949883 3.318412 -10.647294 0.233557 5.930663 -1.528994 -0.983769 8.596300 -12.285745 -10.692836 -134.313675 -62.957241 162.598391 -3.431189 -15.340529 -30.162586 -7.413564 0.942621 -1.339257 3.965050 -21.586593 5.971445 70.246063 -37.611464 -121.241024 4.439628 3.743911 -4.477855 7.875226 -54.398422 5.795195 -29.132347 78.907376 -26.121414 -6.520112 -19.677723 5.490131 0.006524 -0.001380 0.002896 1.843975 -54.059194 -2.837582 103.687432 80.354619 108.729150 8.353111 -11.410960 -7.132258 0.002592 0.011236 0.001151
-3.381325 126.272602 0.466035 174.033065 -17.509796 -3.248735 -1.649495 16.160023 1.370924 -0.180600 1.609445 0.156978 -0.299810 2.693246 0.259856 -1.475612 14.298454 1.237881 3.299321 14.401685 0.916093 3.258059 -10.572978 0.212348 5.998346 -1.426079 -0.891872 8.628245 -12.338683 -10.813946 -133.632875 -63.199597 161.704012 -3.287142 -15.577509 -30.019676 -7.424774 1.012576 -1.456045 4.048114 -21.723823 6.078581 70.502390 -37.877872 -121.142833 4.394569 3.801648 -4.613901 7.696808 -54.308873 5.946814 -29.074666 78.914723 -26.143935 -6.511788 -19.680807 5.487986 0.003729 -0.007781 0.001655 1.833271 -53.983539 -2.818612 103.712032 80.352453 108.761220 8.346934 -11.392128 -7.136083 -0.001214 0.003971 -0.000539
-3.381535 126.273543 0.470256 174.026506 -17.547364 -3.245366 -1.650477 16.230465 1.355746 -0.181628 1.604608 0.156203 -0.300036 2.736371 0.259216 -1.472616 14.355457 1.226751 3.195668 14.401065 0.892944 3.152067 -10.576303 0.211359 6.063093 -1.394531 -0.789740 8.585472 -12.288532 -10.899307 -133.594925 -63.231181 161.574223 -3.237594 -15.748596 -29.840243 -7.458598 1.033423 -1.587168 4.117171 -21.820172 6.253093 70.785522 -38.011831 -121.245391 4.367990 3.921384 -4.809463 7.620860 -54.273265 6.015408 -29.087349 78.917664 -26.194638 -6.524122 -19.690741 5.497827 -0.001160 -0.010626 -0.000515 1.849051 -53.958297 -2.825323 103.716969 80.350004 108.776153 8.346489 -11.373475 -7.144803 0.000557 0.000157 0.000247
-3.381609 126.274171 0.475523 174.014664 -17.566982 -3.235638 -1.634417 16.307728 1.349843 -0.188257 1.557976 0.153338 -0.291608 2.826725 0.262175 -1.457856 14.420337 1.222459 3.054505 14.349233 0.876946 3.004409 -10.633832 0.226299 6.120942 -1.436122 -0.691491 8.480383 -12.150174 -10.947018 -134.211735 -63.096798 162.143789 -3.330423 -15.804218 -29.618433 -7.501753 1.015537 -1.716643 4.182405 -21.885794 6.435949 71.056471 -38.039696 -121.491087 4.333512 4.073401 -5.026818 7.563401 -54.257070 6.065938 -29.253086 78.895365 -26.367734 -6.520082 -19.694919 5.484488 -0.003617 -0.013405 -0.001605 1.869968 -53.952363 -2.835466 103.717670 80.348292 108.783389 8.332685 -11.350343 -7.148126 -0.000418 -0.001939 -0.000185
-3.382186 126.275181 0.479572 173.998797 -17.577799 -3.216439 -1.598328 16.394993 1.350010 -0.208129 1.557787 0.146337 -0.264539 2.873601 0.271334 -1.425430 14.489467 1.226924 2.876444 14.267141 0.866027 2.816551 -10.723411 0.254774 6.149348 -1.529344 -0.602425 8.331933 -11.968515 -10.945235 -135.152860 -62.861114 163.076563 -3.507964 -15.794439 -29.384563 -7.551772 0.968857 -1.821646 4.259165 -21.923222 6.572639 71.283951 -38.012932 -121.823918 4.278558 4.240756 -5.237038 7.527943 -54.250738 6.095805 -29.307557 78.889922 -26.442940 -6.498715 -19.702738 5.492009 -0.014132 -0.016821 -0.006271 1.895972 -53.953890 -2.855974 103.735980 80.342873 108.799122 8.334248 -11.335298 -7.153175 -0.000471 -0.004004 -0.000209
-3.385710 126.276593 0.481909 173.980738 -17.579355 -3.176726 -1.548950 16.483496 1.339591 -0.185242 1.649050 0.155427 -0.275632 2.829921 0.267291 -1.376012 14.560244 1.237470 2.671599 14.172063 0.858959 2.599774 -10.826596 0.293209 6.133848 -1.639384 -0.523186 8.166914 -11.799073 -10.883939 -136.028840 -62.597337 164.024550 -3.667289 -15.783183 -29.189021 -7.600555 0.900208 -1.887208 4.356187 -21.926784 6.632642 71.444019 -37.976381 -122.183898 4.215991 4.414341 -5.429275 7.526421 -54.252806 6.089792 -29.318040 78.892258 -26.472345 -6.440616 -19.696401 5.479557 -0.056702 -0.026009 -0.025161 1.941791 -53.965704 -2.905209 103.759324 80.334447 108.813187 8.331390 -11.312893 -7.154070 -0.000351 -0.016282 -0.000156
-3.389942 126.278036 0.484668 173.971448 -17.560860 -3.135996 -1.502353 16.550490 1.331866 -0.168658 1.693864 0.161576 -0.278862 2.828889 0.267163 -1.322117 14.625069 1.253561 2.457214 14.087347 0.850694 2.373633 -10.918732 0.332515 6.085339 -1.721946 -0.466204 8.007061 -11.678606 -10.767497 -136.847654 -62.345238 164.943441 -3.830797 -15.743045 -29.031869 -7.630636 0.831079 -1.920562 4.462849 -21.896722 6.613872 71.525264 -37.947642 -122.508997 4.159560 4.580837 -5.594870 7.527466 -54.273417 6.070820 -29.411319 78.879525 -26.567257 -6.367241 -19.698589 5.464694 -0.100129 -0.022896 -0.044434 1.979179 -53.994511 -2.958637 103.623179 80.313830 108.667214 8.307268 -11.271317 -7.153192 -0.002377 -0.021733 -0.001054
-3.387766 126.280961 0.485277 173.957550 -17.544945 -3.130547 -1.446220 16.603675 1.368440 -0.164550 1.706165 0.164406 -0.271947 2.848502 0.271849 -1.277924 14.671684 1.276826 2.247139 14.039196 0.832858 2.154959 -10.972576 0.360836 6.025494 -1.731933 -0.447649 7.859813 -11.616945 -10.615500 -137.575654 -62.143224 165.786079 -3.962682 -15.700667 -28.932596 -7.629107 0.795183 -1.945333 4.559148 -21.841007 6.533358 71.525303 -37.924090 -122.753311 4.113836 4.719983 -5.715240 7.486369 -54.289008 6.093623 -29.526987 78.854909 -26.685943 -6.080897 -19.706818 5.430409 -0.092839 -0.023026 -0.041199 1.973789 -54.023573 -2.948305 103.591621 80.300711 108.626081 8.310814 -11.245386 -7.167838 -0.001339 -0.023344 -0.000594
-3.378212 126.285571 0.483104 173.953453 -17.538420 -3.171999 -1.399488 16.647842 1.454161 -0.162003 1.713224 0.167639 -0.267699 2.859669 0.277258 -1.249669 14.697580 1.304486 2.049369 14.034944 0.803764 1.952707 -10.980654 0.374603 5.968355 -1.663139 -0.464440 7.725039 -11.602788 -10.448589 -138.101754 -61.995712 166.440089 -4.014668 -15.685473 -28.867013 -7.598986 0.800285 -1.970723 4.631377 -21.764931 6.414500 71.451558 -37.896959 -122.897572 4.084223 4.816190 -5.773968 7.376175 -54.292371 6.160451 -29.380169 78.855788 -26.583378 -5.480744 -19.735511 5.348882 -0.000412 -0.015208 -0.000183 1.905641 -54.044070 -2.863462 103.573842 80.293965 108.603919 8.308404 -11.238448 -7.169892 -0.006340 -0.013820 -0.002814
-3.371788 126.289222 0.483079 173.959511 -17.509212 -3.207063 -1.375363 16.658755 1.526510 -0.161083 1.717330 0.170715 -0.276256 2.843399 0.265320 -1.222625 14.735066 1.347061 1.869499 14.060326 0.771454 1.770692 -10.957661 0.381068 5.917417 -1.552529 -0.497925 7.609624 -11.613135 -10.272504 -138.363570 -61.878901 166.834636 -3.988242 -15.669660 -28.798193 -7.555897 0.828330 -1.985963 4.671828 -21.674025 6.281137 71.319710 -37.859991 -122.942382 4.079834 4.863365 -5.770365 7.300845 -54.316113 6.196267 -29.262976 78.855560 -26.492786 -4.939611 -19.750581 5.273364 0.076927 -0.025994 0.034134 1.849447 -54.083731 -2.795456 103.577098 80.296476 108.605817 8.306411 -11.219939 -7.171810 -0.008892 -0.019808 -0.003946
-3.371676 126.293554 0.478082 173.971490 -17.499891 -3.213195 -1.371826 16.676544 1.552754 -0.157923 1.724705 0.177111 -0.283061 2.834183 0.260454 -1.215020 14.757951 1.377033 1.711432 14.101654 0.742218 1.611362 -10.917712 0.385949 5.874950 -1.430523 -0.531496 7.525077 -11.624066 -10.085960 -138.396911 -61.787472 166.996367 -3.918936 -15.625127 -28.722752 -7.539638 0.823373 -2.006006 4.694547 -21.529637 6.175497 71.147635 -37.810219 -122.897508 4.102123 4.863853 -5.723846 7.260336 -54.319656 6.210236 -29.250321 78.847034 -26.483540 -4.640516 -19.769911 5.225726 0.091168 -0.028524 0.040451 1.831574 -54.089858 -2.781940 103.540177 80.302981 108.567422 8.296480 -11.221958 -7.173101 -0.005646 -0.010017 -0.002506
